Release Title: Nanny McPhee 2005

Release Date: 27 January 2006 (USA)

Film Length: 1:38:27

Tagline: You'll Learn To Love Her. Warts And All.

Storyline: Mr. Cedric Brown has just lost his wife and is now left with his seven children who misbehave so much that all the nannies have run away. Now he is told by a mysterious voice that he should get Nanny McPhee who is a magical woman with special powers.

Emma Thompson  ...  Nanny McPhee
Colin Firth  ...  Cedric Brown
Kelly Macdonald  ...  Evangeline
Thomas Brodie-Sangster  ...  Simon Brown (as Thomas Sangster)
Eliza Bennett  ...  Tora Brown
Raphaël Coleman  ...  Eric Brown
Jennifer Rae Daykin  ...  Lily Brown
Samuel Honywood  ...  Sebastian Brown
Holly Gibbs  ...  Christianna Brown
Hebe Barnes  ...  Baby Agatha Brown
Zinnia Barnes  ...  Baby Agatha Brown
Angela Lansbury  ...  Aunt Adelaide
Celia Imrie  ...  Selma Quickly
Imelda Staunton  ...  Mrs. Blatherwick
Elizabeth Berrington  ...  Letitia

Genre: Comedy | Family | Fantasy
Format: Matroska
File size: 2.22 GiB
Duration: 1h 38mn
Overall bit rate: 3 226 Kbps
Movie name: Nanny McPhee 2005 720p Dual Audio [Eng-Hindi]~Alan (HDDR Release)
Language: English and Hindi
Ripper: Alan

Video
ID: 1
Format: AVC
Format/Info: Advanced Video Codec
Format profile: High@L4.1
Format settings, CABAC: Yes
Format settings, ReFrames: 4 frames
Muxing mode: Header stripping
Codec ID: V_MPEG4/ISO/AVC
Duration: 1h 38mn
Bit rate: 2 458 Kbps
Width: 1 280 pixels
Height: 544 pixels
Display aspect ratio: 2.35:1
Frame rate: 23.976 fps
Color space: YUV
Chroma subsampling: 4:2:0
Bit depth: 8 bits
Scan type: Progressive
Bits/(Pixel*Frame): 0.147
Stream size: 1.65 GiB (74%)
Title: Alan
Writing library: x264 core 115 r1995 c1e60b9
Language: English

Audio #1
ID: 2
Format: AC-3
Format/Info: Audio Coding 3
Mode extension: CM (complete main)
Muxing mode: Header stripping
Codec ID: A_AC3
Duration: 1h 38mn
Bit rate mode: Constant
Bit rate: 448 Kbps
Channel(s): 6 channels
Channel positions: Front: L C R, Side: L R, LFE
Sampling rate: 48.0 KHz
Bit depth: 16 bits
Compression mode: Lossy
Stream size: 316 MiB (14%)
Title: Alan
Language: English

Audio #2
ID: 3
Format: AC-3
Format/Info: Audio Coding 3
Mode extension: CM (complete main)
Muxing mode: Header stripping
Codec ID: A_AC3
Duration: 1h 38mn
Bit rate mode: Constant
Bit rate: 320 Kbps
Channel(s): 2 channels
Channel positions: Front: L R
Sampling rate: 48.0 KHz
Bit depth: 16 bits
Compression mode: Lossy
Delay relative to video: 4ms
Stream size: 225 MiB (10%)
Title Alan
Language: Hindi
 
http://www.leetleech.org/images/10766406443753035469.png 
http://www.leetleech.org/images/34217916114613990883.png 
http://www.leetleech.org/images/70814926881592314411.png 
http://www.leetleech.org/images/22796055210432236440.png 
http://www.leetleech.org/images/47894182767917746430.png 
http://www.leetleech.org/images/82736919717924092373.png 
http://www.leetleech.org/images/91989334843347313411.png 
http://www.leetleech.org/images/59346686897141472597.png